<svg width="1536" height="512" xmlns="http://www.w3.org/2000/svg">
    <style>
        :root {
            --color: black;
            background-color: white;
        }
    </style>

    <g transform="scale(2.56)">
        <defs>
            <path
                id="wedge"
                d="M -22 -32 Q 0 32 22 -32 Z"
                transform="translate(100, 30)"
                fill="black"
            />
            <mask id="gear">
                <rect x="0" y="0" width="200" height="200" fill="white" />
                <use href="#wedge" />
                <use href="#wedge" transform="rotate(36, 100, 100)" />
                <use href="#wedge" transform="rotate(72, 100, 100)" />
                <use href="#wedge" transform="rotate(108, 100, 100)" />
                <use href="#wedge" transform="rotate(144, 100, 100)" />
                <use href="#wedge" transform="rotate(180, 100, 100)" />
                <use href="#wedge" transform="rotate(216, 100, 100)" />
                <use href="#wedge" transform="rotate(252, 100, 100)" />
                <use href="#wedge" transform="rotate(288, 100, 100)" />
                <use href="#wedge" transform="rotate(324, 100, 100)" />
                <circle cx="100" cy="100" r="45" />
            </mask>
        </defs>
        <circle cx="100" cy="100" r="90" mask="url(#gear)" fill="var(--color, black)" />
        <path
            d="M 220 120 h 300"
            stroke="var(--color, black)"
            stroke-width="15"
            stroke-linecap="round"
        />
        <path
            d="M 215 150 h 300"
            stroke="var(--color, black)"
            stroke-width="15"
            stroke-linecap="round"
        />
        <path
            d="M 190 180 h 300"
            stroke="var(--color, black)"
            stroke-width="15"
            stroke-linecap="round"
        />

        <!-- Created using https://danmarshall.github.io/google-font-to-svg-path/ with 'Museo Moderno' font -->
        <path
            transform="translate(220, 20)"
            fill="var(--color, black)"
            d="M 167.9 73 L 152.4 73 L 163.9 0 L 179.4 0 L 175.5 24.1 L 175.4 24.8 Q 178.9 22.5 182.3 21.5 Q 185.7 20.5 188.8 20.5 A 23.7 23.7 0 0 1 193.899 21.024 A 17.922 17.922 0 0 1 199.15 23.05 Q 203.5 25.6 205.85 30 A 19.893 19.893 0 0 1 208.009 36.955 A 25.198 25.198 0 0 1 208.2 40.1 A 23.403 23.403 0 0 1 208.153 41.538 Q 208.103 42.348 208 43.25 A 134.386 134.386 0 0 1 207.803 44.888 Q 207.702 45.689 207.6 46.4 L 203.3 73 L 187.8 73 L 192.1 45.8 A 8.503 8.503 0 0 0 192.291 44.742 A 10.559 10.559 0 0 0 192.35 44.05 Q 192.4 43.1 192.4 42.2 A 10.757 10.757 0 0 0 192.201 40.077 A 7.795 7.795 0 0 0 191.35 37.75 Q 190.3 35.9 188.35 34.95 A 9.202 9.202 0 0 0 185.805 34.157 A 12.297 12.297 0 0 0 183.8 34 Q 181 34 178.6 35.25 Q 176.2 36.5 174.6 38.7 Q 173 40.9 172.5 43.7 L 167.9 73 Z M 125.7 72.9 L 99.2 72.9 L 101.2 60.6 L 126.2 60.6 A 6.245 6.245 0 0 0 127.19 60.526 Q 127.866 60.417 128.4 60.15 Q 129.3 59.7 129.85 58.85 Q 130.4 58 130.4 57 A 3.831 3.831 0 0 0 130.256 55.925 A 2.917 2.917 0 0 0 129.45 54.6 A 3.127 3.127 0 0 0 128.101 53.86 Q 127.627 53.73 127.064 53.706 A 6.096 6.096 0 0 0 126.8 53.7 L 118.9 53.7 A 21.41 21.41 0 0 1 114.281 53.22 A 17.492 17.492 0 0 1 110.65 52 Q 107 50.3 104.95 47.05 A 13.015 13.015 0 0 1 103.188 42.46 A 17.652 17.652 0 0 1 102.9 39.2 Q 102.9 34.5 105.25 30.5 A 16.71 16.71 0 0 1 110.905 24.766 A 20.394 20.394 0 0 1 112.05 24.1 Q 116.5 21.7 122.6 21.7 L 146.5 21.7 L 144.5 34 L 122.5 34 A 5.419 5.419 0 0 0 121.441 34.099 A 4.111 4.111 0 0 0 120.4 34.45 A 3.624 3.624 0 0 0 119.639 34.952 A 2.895 2.895 0 0 0 119.05 35.65 Q 118.6 36.4 118.5 37.3 A 4.239 4.239 0 0 0 118.592 38.209 Q 118.779 39.063 119.35 39.6 Q 120.2 40.4 121.8 40.4 L 129.6 40.4 A 24.099 24.099 0 0 1 133.488 40.697 Q 135.645 41.05 137.44 41.822 A 14.093 14.093 0 0 1 138.25 42.2 Q 141.8 44 143.75 47.15 Q 145.7 50.3 145.7 54.5 Q 145.7 59.6 143.1 63.75 Q 140.5 67.9 136 70.4 A 19.882 19.882 0 0 1 128.519 72.744 A 24.843 24.843 0 0 1 125.7 72.9 Z M 80.3 21.7 L 95.7 21.7 L 91.1 51.8 A 27.627 27.627 0 0 1 87.695 61.606 A 26.431 26.431 0 0 1 86.55 63.4 A 23.931 23.931 0 0 1 77.284 71.26 A 28.062 28.062 0 0 1 77.1 71.35 A 27.774 27.774 0 0 1 69.798 73.654 A 38.042 38.042 0 0 1 63.2 74.2 A 31.197 31.197 0 0 1 57.081 73.627 A 23.438 23.438 0 0 1 51 71.55 A 20.486 20.486 0 0 1 45.244 67.272 A 18.953 18.953 0 0 1 42.95 64.25 Q 40.1 59.6 40.1 53.8 Q 40.1 52.8 40.25 51.6 Q 40.4 50.4 40.5 49.4 L 44.9 21.7 L 60.4 21.7 L 56 50 Q 55.9 50.6 55.85 51.2 Q 55.8 51.8 55.8 52.2 Q 55.8 56 58.2 58.4 A 8.033 8.033 0 0 0 62.588 60.631 A 11.455 11.455 0 0 0 64.6 60.8 A 10.733 10.733 0 0 0 68.249 60.191 A 9.947 9.947 0 0 0 69.85 59.45 Q 72.2 58.1 73.8 55.75 Q 75.4 53.4 75.8 50.6 L 80.3 21.7 Z M 15.5 73 L 0 73 L 5.7 36.4 A 20.977 20.977 0 0 1 7.155 31.289 A 15.762 15.762 0 0 1 11.3 25.6 A 15.712 15.712 0 0 1 19.06 22.008 A 21.778 21.778 0 0 1 22.8 21.7 L 38 21.7 L 36.1 34.4 L 25 34.4 A 3.881 3.881 0 0 0 22.558 35.263 A 4.896 4.896 0 0 0 22.45 35.35 Q 21.3 36.3 21.1 37.8 L 15.5 73 Z"
        />
    </g>
</svg>
