<svg width="512" height="512" xmlns="http://www.w3.org/2000/svg">
    <style>
        :root {
            --color: black;
        }
    </style>

    <g transform="scale(2.56)">
        <defs>
            <path
                id="wedge"
                d="M -22 -32 Q 0 32 22 -32 Z"
                transform="translate(100, 30)"
                fill="black"
            />
            <mask id="gear">
                <rect x="0" y="0" width="100" height="200" fill="white" />
                <use href="#wedge" />
                <use href="#wedge" transform="rotate(180, 100, 100)" />
                <use href="#wedge" transform="rotate(216, 100, 100)" />
                <use href="#wedge" transform="rotate(252, 100, 100)" />
                <use href="#wedge" transform="rotate(288, 100, 100)" />
                <use href="#wedge" transform="rotate(324, 100, 100)" />
                <circle cx="100" cy="100" r="45" />
            </mask>
        </defs>
        <circle cx="100" cy="100" r="90" mask="url(#gear)" fill="var(--color, black)" />
        <path
            d="M 140 120 h 40"
            stroke="var(--color, black)"
            stroke-width="15"
            stroke-linecap="round"
        />
        <path
            d="M 135 150 h 40"
            stroke="var(--color, black)"
            stroke-width="15"
            stroke-linecap="round"
        />
        <path
            d="M 120 180 h 40"
            stroke="var(--color, black)"
            stroke-width="15"
            stroke-linecap="round"
        />

        <!-- Created using https://danmarshall.github.io/google-font-to-svg-path/ with 'Museo Moderno' font -->
        <path
            transform="translate(130, -15), scale(1.5)"
            fill="var(--color, black)"
            d="M 15.5 73 L 0 73 L 5.7 36.4 A 20.977 20.977 0 0 1 7.155 31.289 A 15.762 15.762 0 0 1 11.3 25.6 A 15.712 15.712 0 0 1 19.06 22.008 A 21.778 21.778 0 0 1 22.8 21.7 L 38 21.7 L 36.1 34.4 L 25 34.4 A 3.881 3.881 0 0 0 22.558 35.263 A 4.896 4.896 0 0 0 22.45 35.35 Q 21.3 36.3 21.1 37.8 L 15.5 73 Z"
        />
    </g>
</svg>
