<svg width="512" height="512" xmlns="http://www.w3.org/2000/svg">
    <style>
        :root {
            --color: black;
            /* background-color: white; */
            --outline: white;
            --outline-width: 5;
        }
    </style>

    <g
        fill="var(--color, black)"
        stroke="var(--outline, none)"
        stroke-width="var(--outline-width)"
        transform="scale(2.56)"
    >
        <!-- Gear -->
        <path
            d="M 34.178 161.38 A 90 90 0 0 1 21.284 143.633 Q 49.587 116.38 10.671 110.968 A 90 90 0 0 1 10.671 89.032 Q 49.587 83.62 21.284 56.367 A 90 90 0 0 1 34.178 38.62 Q 68.843 57.116 61.964 18.432 A 90 90 0 0 1 82.827 11.654 C 88.551 23.433 94.276 29.323 100 29.323 L 100 55 A 45 45 0 0 0 73.55 136.406 L 58.457 157.179 C 53.826 153.814 45.733 155.215 34.178 161.38 Z"
        />

        <!-- Lines -->
        <path d="M 110 120 m 0 -7.5 a 1 1 0 0 0 0 15 h 70 a 1 1 0 0 0 0 -15 Z" />
        <path d="M 100 150 m 0 -7.5 a 1 1 0 0 0 0 15 h 70 a 1 1 0 0 0 0 -15 Z" />
        <path d="M 70 180 m 0 -7.5 a 1 1 0 0 0 0 15 h 70 a 1 1 0 0 0 0 -15 Z" />

        <!-- Created using https://danmarshall.github.io/google-font-to-svg-path/ with 'Museo Moderno' font -->
        <path
            transform="translate(130, -15)"
            d="M 23.25 109.5 L 0 109.5 L 8.55 54.6 A 31.4655 31.4655 90 0 1 10.7325 46.9335 A 23.643 23.643 90 0 1 16.95 38.4 A 23.568 23.568 90 0 1 28.59 33.012 A 32.667 32.667 90 0 1 34.2 32.55 L 57 32.55 L 54.15 51.6 L 37.5 51.6 A 5.8215 5.8215 90 0 0 33.837 52.8945 A 7.344 7.344 90 0 0 33.675 53.025 Q 31.95 54.45 31.65 56.7 L 23.25 109.5 Z"
        />
    </g>
</svg>
